<?xml version="1.0" encoding="utf-8"?>
<!-- Generator: Adobe Illustrator 16.0.0, SVG Export Plug-In . SVG Version: 6.00 Build 0)  -->
<!DOCTYPE svg PUBLIC "-//W3C//DTD SVG 1.1//EN" "http://www.w3.org/Graphics/SVG/1.1/DTD/svg11.dtd">
<svg version="1.1" id="Layer_1" xmlns="http://www.w3.org/2000/svg" xmlns:xlink="http://www.w3.org/1999/xlink" x="0px" y="0px"
	 width="382.437px" height="86.537px" viewBox="0 0 382.437 86.537" enable-background="new 0 0 382.437 86.537"
	 xml:space="preserve">
<g>
	<linearGradient id="SVGID_1_" gradientUnits="userSpaceOnUse" x1="117.0015" y1="34.5493" x2="117.0015" y2="82.073">
		<stop  offset="0" style="stop-color:#A7A9AC"/>
		<stop  offset="1" style="stop-color:#58595B"/>
	</linearGradient>
	<path fill="url(#SVGID_1_)" d="M130.321,48.848c0,12.899-4.379,16.139-14.938,16.139c-2.88,0-11.7-0.84-11.7-0.84V22.27h8.04
		v12.898c0,0,3.84-1.619,6.479-1.619C126.362,33.549,130.321,37.328,130.321,48.848z M122.162,48.848c0-6.06-1.92-8.1-5.04-8.1
		c-2.399,0-5.399,0.779-5.399,0.779v16.02c0,0,2.76,0.24,3.66,0.24C120.902,57.787,122.162,55.328,122.162,48.848z"/>
	<linearGradient id="SVGID_2_" gradientUnits="userSpaceOnUse" x1="149.042" y1="34.5493" x2="149.042" y2="82.0731">
		<stop  offset="0" style="stop-color:#A7A9AC"/>
		<stop  offset="1" style="stop-color:#58595B"/>
	</linearGradient>
	<path fill="url(#SVGID_2_)" d="M162.062,34.268v30h-7.98v-1.68c0,0-4.32,2.398-7.5,2.398c-8.76,0-10.559-4.859-10.559-14.998
		V34.268h8.039v15.84c0,5.34,0.24,7.68,4.199,7.68c3,0,5.76-1.08,5.76-1.08V34.268H162.062z"/>
	<linearGradient id="SVGID_3_" gradientUnits="userSpaceOnUse" x1="178.291" y1="34.5493" x2="178.291" y2="82.0731">
		<stop  offset="0" style="stop-color:#A7A9AC"/>
		<stop  offset="1" style="stop-color:#58595B"/>
	</linearGradient>
	<path fill="url(#SVGID_3_)" d="M169.501,34.268h7.98v3.181c0,0,5.039-3,9.6-3.899v8.1c-5.279,1.02-9.539,2.52-9.539,2.52v20.1
		h-8.041V34.268z"/>
	<linearGradient id="SVGID_4_" gradientUnits="userSpaceOnUse" x1="201.6914" y1="34.5493" x2="201.6914" y2="82.0729">
		<stop  offset="0" style="stop-color:#A7A9AC"/>
		<stop  offset="1" style="stop-color:#58595B"/>
	</linearGradient>
	<path fill="url(#SVGID_4_)" d="M190.562,34.268h22.26v7.201l-12.6,15.599h12.6v7.2h-22.26v-7.2l12.6-15.599h-12.6V34.268z"/>
	<linearGradient id="SVGID_5_" gradientUnits="userSpaceOnUse" x1="230.5508" y1="34.5493" x2="230.5508" y2="82.0731">
		<stop  offset="0" style="stop-color:#A7A9AC"/>
		<stop  offset="1" style="stop-color:#58595B"/>
	</linearGradient>
	<path fill="url(#SVGID_5_)" d="M242.04,56.107c0.121,1.8,0.361,2.52,1.98,2.82l-0.24,6.059c-4.02,0-6.061-0.42-8.58-2.1
		c0,0-4.318,2.1-8.818,2.1c-6.301,0-9.301-3.479-9.301-9.839c0-6.78,3.9-8.7,10.5-9.18l6.42-0.479v-1.86
		c0-2.58-1.141-3.239-3.541-3.239c-3.959,0-11.279,0.479-11.279,0.479l-0.24-5.58c0,0,6.42-1.739,12.18-1.739
		c7.801,0,10.92,3.06,10.92,10.079V56.107z M228.54,51.547c-2.1,0.181-3.359,1.201-3.359,3.361c0,2.1,0.781,3.539,2.939,3.539
		c2.58,0,5.881-0.96,5.881-0.96v-6.419L228.54,51.547z"/>
	<linearGradient id="SVGID_6_" gradientUnits="userSpaceOnUse" x1="266.9395" y1="34.5493" x2="266.9395" y2="82.0729">
		<stop  offset="0" style="stop-color:#A7A9AC"/>
		<stop  offset="1" style="stop-color:#58595B"/>
	</linearGradient>
	<path fill="url(#SVGID_6_)" d="M262.919,34.268h8.041v30h-8.041V34.268z"/>
	<linearGradient id="SVGID_7_" gradientUnits="userSpaceOnUse" x1="290.4287" y1="34.5493" x2="290.4287" y2="82.073">
		<stop  offset="0" style="stop-color:#A7A9AC"/>
		<stop  offset="1" style="stop-color:#58595B"/>
	</linearGradient>
	<path fill="url(#SVGID_7_)" d="M303.897,64.268h-7.979v-1.26c0,0-4.201,1.979-7.26,1.979c-9.061,0-11.699-5.279-11.699-15.838
		c0-10.98,4.26-15.6,12.418-15.6c2.221,0,6.48,0.84,6.48,0.84V22.27h8.039V64.268z M295.858,56.887V41.107c0,0-3.299-0.6-5.879-0.6
		c-3,0-4.861,2.58-4.861,8.641c0,6.119,1.141,8.639,4.92,8.639C292.858,57.787,295.858,56.887,295.858,56.887z"/>
	<linearGradient id="SVGID_8_" gradientUnits="userSpaceOnUse" x1="323.0088" y1="34.5493" x2="323.0088" y2="82.0731">
		<stop  offset="0" style="stop-color:#A7A9AC"/>
		<stop  offset="1" style="stop-color:#58595B"/>
	</linearGradient>
	<path fill="url(#SVGID_8_)" d="M335.099,57.367l0.119,5.939c0,0-6.898,1.68-12.479,1.68c-9.061,0-12.9-4.499-12.9-15.299
		c0-10.68,4.5-16.139,13.26-16.139c8.82,0,13.08,4.5,13.08,13.559l-0.6,5.58h-17.641c0.061,3.6,1.74,5.22,6.061,5.22
		C328.919,57.907,335.099,57.367,335.099,57.367z M328.259,46.568c0-4.86-1.381-6.42-5.16-6.42c-3.84,0-5.16,1.859-5.219,6.42
		H328.259z"/>
	<linearGradient id="SVGID_9_" gradientUnits="userSpaceOnUse" x1="343.1084" y1="34.5493" x2="343.1084" y2="82.0728">
		<stop  offset="0" style="stop-color:#A7A9AC"/>
		<stop  offset="1" style="stop-color:#58595B"/>
	</linearGradient>
	<path fill="url(#SVGID_9_)" d="M341.999,34.268h8.039v28.619c0,8.34-2.34,10.979-10.68,15.18l-3.18-5.939
		c4.92-3.24,5.82-4.2,5.82-9.3V34.268z"/>
	<linearGradient id="SVGID_10_" gradientUnits="userSpaceOnUse" x1="368.9668" y1="34.5493" x2="368.9668" y2="82.0731">
		<stop  offset="0" style="stop-color:#A7A9AC"/>
		<stop  offset="1" style="stop-color:#58595B"/>
	</linearGradient>
	<path fill="url(#SVGID_10_)" d="M380.456,56.107c0.121,1.8,0.361,2.52,1.98,2.82l-0.24,6.059c-4.02,0-6.059-0.42-8.578-2.1
		c0,0-4.32,2.1-8.82,2.1c-6.301,0-9.301-3.479-9.301-9.839c0-6.78,3.9-8.7,10.5-9.18l6.42-0.479v-1.86
		c0-2.58-1.141-3.239-3.539-3.239c-3.961,0-11.279,0.479-11.279,0.479l-0.24-5.58c0,0,6.42-1.739,12.18-1.739
		c7.799,0,10.918,3.06,10.918,10.079V56.107z M366.958,51.547c-2.1,0.181-3.361,1.201-3.361,3.361c0,2.1,0.781,3.539,2.941,3.539
		c2.58,0,5.879-0.96,5.879-0.96v-6.419L366.958,51.547z"/>
</g>
<g>
	<path fill="#E61D73" d="M24.789,30.279c1.567-4.997,4.591-9.853,8.016-14.042c0.737-0.896,1.49-1.761,2.261-2.578
		c5.093-5.354,10.287-8.721,16.015-7.565c0.45,0.085,0.899,0.2,1.35,0.333c6.732,2.051,14.493,9.554,21.439,16.565
		c0.424,0.443,0.838,0.888,1.253,1.328c6.479,6.977,11.467,12.974,11.415,18.947c0.053,5.976-4.939,11.976-11.419,18.952
		c4.4-4.775,7.841-9.225,8.52-13.583c0.292-1.854,0.084-3.618-0.548-5.369c-2.066-5.572-8.627-11.609-15.773-16.432
		c-1.004-0.659-2.021-1.283-3.053-1.862c-3.716-2.08-7.542-3.561-11.455-3.922c-0.981-0.091-1.944-0.11-2.893-0.063
		c-4.326,0.21-8.383,1.89-12.127,4.498c-2.702,1.886-5.221,4.239-7.382,6.853c-0.646,0.736-1.242,1.515-1.77,2.327
		c-1.683,2.589-2.703,5.505-2.702,8.602c-0.001,3.095,1.019,6.008,2.697,8.596c-1.88-2.692-3.348-5.579-4.184-8.598
		c-0.633-2.282-0.908-4.644-0.765-7.096C23.798,34.173,24.186,32.21,24.789,30.279z"/>
	<path fill="#95C13D" d="M52.43,80.109c5.64-5.386,11.875-13.095,14.885-20.407c0.397-0.993,0.733-1.987,0.997-2.985
		c0.229-0.872,0.408-1.744,0.523-2.622c0.516-3.853-0.225-7.426-1.917-10.828c-1.929-3.871-5.062-7.535-8.761-10.602
		c-2.696-2.223-5.68-4.109-8.818-5.402c-0.719-0.318-1.455-0.586-2.208-0.794c-1.247-0.345-2.536-0.534-3.862-0.534
		c-4.958-0.008-9.532,2.647-12.862,6.405c2.162-2.613,4.68-4.967,7.382-6.853c3.744-2.608,7.803-4.287,12.127-4.498
		c0.949-0.048,1.912-0.028,2.893,0.063c3.913,0.361,7.739,1.842,11.455,3.922c1.031,0.579,2.05,1.203,3.053,1.862
		c7.146,4.822,13.707,10.859,15.773,16.432c0.632,1.751,0.84,3.515,0.548,5.369c-0.679,4.358-4.12,8.808-8.52,13.583
		c-0.41,0.438-0.823,0.879-1.244,1.321C62.999,74.282,52.19,86.648,43.268,86.536c-3.014,0.004-5.944-1.191-9.054-3.23
		c2.149,1.398,4.227,2.286,6.342,2.474C44.589,86.165,48.391,83.84,52.43,80.109z"/>
	<path fill="#FDED06" d="M14.2,24.188c5.121-7.279,12.705-15.528,18.896-20.188c0.377-0.267,0.752-0.526,1.123-0.771
		c3.108-2.038,6.036-3.232,9.049-3.228c8.919-0.114,19.727,12.249,30.601,22.991C66.923,15.98,59.162,8.478,52.43,6.427
		c-0.451-0.133-0.899-0.247-1.35-0.333c-5.728-1.155-10.922,2.211-16.015,7.565c-0.771,0.818-1.523,1.683-2.261,2.578
		c-3.424,4.189-6.451,9.045-8.016,14.042c-0.603,1.931-0.991,3.894-1.105,5.892c-0.143,2.452,0.132,4.812,0.765,7.096
		c0.835,3.019,2.303,5.905,4.184,8.598c0.531,0.816,1.13,1.597,1.779,2.337c3.329,3.755,7.9,6.407,12.857,6.401
		c1.326,0,2.615-0.189,3.862-0.535c-2.461,0.771-5.006,1.168-7.641,1.096c-0.571-0.016-1.137-0.057-1.7-0.113
		c-4.562-0.457-8.946-2.275-13-4.793c-4.63-2.9-8.811-6.639-11.616-10.502c-0.592-0.82-1.118-1.649-1.575-2.487
		c-1.691-3.104-2.37-6.286-1.7-9.758C10.484,30.429,12.063,27.348,14.2,24.188z"/>
	<path fill="#00AAD7" d="M14.2,62.349c5.938,4.907,12.161,9.291,18.209,10.302c0.902,0.15,1.786,0.224,2.655,0.226
		c0.925,0.002,1.831-0.084,2.725-0.243c4.32-0.769,8.413-3.429,12.125-7.087c3.323-3.298,6.281-7.353,8.241-11.675
		c1.349-2.984,2.211-6.105,2.383-9.345c0.039-0.416,0.062-0.835,0.062-1.258c0-0.424-0.023-0.842-0.062-1.258
		c-0.578-6.32-5.405-12.106-11.202-14.748c3.138,1.293,6.123,3.18,8.818,5.402c3.699,3.066,6.832,6.73,8.761,10.602
		c1.692,3.402,2.433,6.976,1.917,10.828c-0.115,0.879-0.293,1.751-0.523,2.622c-0.264,0.998-0.6,1.992-0.997,2.985
		c-3.011,7.313-9.245,15.021-14.885,20.407c-4.039,3.73-7.84,6.056-11.874,5.67c-2.115-0.188-4.193-1.075-6.342-2.474
		c-0.368-0.242-0.741-0.501-1.113-0.766c-6.169-4.474-13.773-12.115-20.425-18.977C6.103,56.52,0.479,50.255,0.061,44.331
		C0.7,50.043,7.058,56.211,14.2,62.349z"/>
	<path fill="#F29320" d="M0.061,42.205c0.418-5.924,6.041-12.187,12.613-19.229c6.65-6.861,14.254-14.502,20.422-18.977
		C26.905,8.659,19.321,16.908,14.2,24.188c-2.137,3.16-3.716,6.241-4.303,9.322c-0.669,3.472,0.009,6.653,1.7,9.758
		c0.457,0.838,0.983,1.667,1.575,2.487c2.806,3.863,6.986,7.602,11.616,10.502c4.054,2.52,8.438,4.336,13,4.793
		c0.563,0.057,1.129,0.098,1.7,0.113c2.635,0.072,5.18-0.324,7.641-1.096c0.753-0.208,1.489-0.475,2.208-0.795
		c5.796-2.643,10.624-8.427,11.202-14.746c-0.172,3.239-1.034,6.36-2.383,9.345c-1.96,4.322-4.918,8.376-8.241,11.675
		c-3.713,3.658-7.806,6.318-12.125,7.087c-0.895,0.159-1.8,0.245-2.725,0.243c-0.87-0.002-1.753-0.075-2.655-0.226
		C26.361,71.64,20.138,67.256,14.2,62.349C7.058,56.211,0.7,50.043,0.061,44.331C0.028,43.978,0,43.624,0,43.268
		S0.028,42.559,0.061,42.205z"/>
	
		<linearGradient id="SVGID_11_" gradientUnits="userSpaceOnUse" x1="307.7363" y1="34.043" x2="370.626" y2="34.043" gradientTransform="matrix(-1 0 0 1 394.2715 0)">
		<stop  offset="0" style="stop-color:#F9EC00"/>
		<stop  offset="0.0667" style="stop-color:#F9DA20"/>
		<stop  offset="0.1455" style="stop-color:#F9CA33"/>
		<stop  offset="0.1939" style="stop-color:#F9C438"/>
		<stop  offset="0.3362" style="stop-color:#F2BE2D"/>
		<stop  offset="0.4788" style="stop-color:#E9B620"/>
		<stop  offset="0.7576" style="stop-color:#F6CB12"/>
		<stop  offset="0.8609" style="stop-color:#F6CC11"/>
		<stop  offset="0.9152" style="stop-color:#F5D110"/>
		<stop  offset="0.958" style="stop-color:#F3D90D"/>
		<stop  offset="0.9948" style="stop-color:#F1E507"/>
		<stop  offset="1" style="stop-color:#F0E904"/>
	</linearGradient>
	<path fill="url(#SVGID_11_)" d="M24.789,30.279c1.567-4.997,4.591-9.853,8.016-14.042c0.737-0.896,1.49-1.761,2.261-2.578
		c5.093-5.354,10.287-8.721,16.015-7.565c0.45,0.085,0.899,0.2,1.35,0.333c6.732,2.051,14.493,9.554,21.439,16.565
		c0.424,0.443,0.838,0.888,1.253,1.328c6.479,6.977,11.467,12.974,11.415,18.947c0.053,5.976-4.939,11.976-11.419,18.952
		c4.4-4.775,7.841-9.225,8.52-13.583c0.292-1.854,0.084-3.618-0.548-5.369c-2.066-5.572-8.627-11.609-15.773-16.432
		c-1.004-0.659-2.021-1.283-3.053-1.862c-3.716-2.08-7.542-3.561-11.455-3.922c-0.981-0.091-1.944-0.11-2.893-0.063
		c-4.326,0.21-8.383,1.89-12.127,4.498c-2.702,1.886-5.221,4.239-7.382,6.853c-0.646,0.736-1.242,1.515-1.77,2.327
		c-1.683,2.589-2.703,5.505-2.702,8.602c-0.001,3.095,1.019,6.008,2.697,8.596c-1.88-2.692-3.348-5.579-4.184-8.598
		c-0.633-2.282-0.908-4.644-0.765-7.096C23.798,34.173,24.186,32.21,24.789,30.279z"/>
	
		<linearGradient id="SVGID_12_" gradientUnits="userSpaceOnUse" x1="337.1846" y1="86.5366" x2="337.1846" y2="20.9634" gradientTransform="matrix(-1 0 0 1 394.2715 0)">
		<stop  offset="0" style="stop-color:#39A0C9"/>
		<stop  offset="0.3229" style="stop-color:#3A9EC7"/>
		<stop  offset="0.5126" style="stop-color:#3C98C1"/>
		<stop  offset="0.6678" style="stop-color:#3F8FB7"/>
		<stop  offset="0.8045" style="stop-color:#4283AA"/>
		<stop  offset="0.9277" style="stop-color:#45749C"/>
		<stop  offset="1" style="stop-color:#466A92"/>
	</linearGradient>
	<path fill="url(#SVGID_12_)" d="M52.43,80.109c5.64-5.386,11.875-13.095,14.885-20.407c0.397-0.993,0.733-1.987,0.997-2.985
		c0.229-0.872,0.408-1.744,0.523-2.622c0.516-3.853-0.225-7.426-1.917-10.828c-1.929-3.871-5.062-7.535-8.761-10.602
		c-2.696-2.223-5.68-4.109-8.818-5.402c-0.719-0.318-1.455-0.586-2.208-0.794c-1.247-0.345-2.536-0.534-3.862-0.534
		c-4.958-0.008-9.532,2.647-12.862,6.405c2.162-2.613,4.68-4.967,7.382-6.853c3.744-2.608,7.803-4.287,12.127-4.498
		c0.949-0.048,1.912-0.028,2.893,0.063c3.913,0.361,7.739,1.842,11.455,3.922c1.031,0.579,2.05,1.203,3.053,1.862
		c7.146,4.822,13.707,10.859,15.773,16.432c0.632,1.751,0.84,3.515,0.548,5.369c-0.679,4.358-4.12,8.808-8.52,13.583
		c-0.41,0.438-0.823,0.879-1.244,1.321C62.999,74.282,52.19,86.648,43.268,86.536c-3.014,0.004-5.944-1.191-9.054-3.23
		c2.149,1.398,4.227,2.286,6.342,2.474C44.589,86.165,48.391,83.84,52.43,80.109z"/>
	
		<linearGradient id="SVGID_13_" gradientUnits="userSpaceOnUse" x1="320.4023" y1="30.5854" x2="384.6289" y2="30.5854" gradientTransform="matrix(-1 0 0 1 394.2715 0)">
		<stop  offset="0.0532" style="stop-color:#F0567A"/>
		<stop  offset="0.3777" style="stop-color:#ED3155"/>
		<stop  offset="0.8138" style="stop-color:#ED3155"/>
		<stop  offset="1" style="stop-color:#BA2026"/>
	</linearGradient>
	<path fill="url(#SVGID_13_)" d="M14.2,24.188c5.121-7.279,12.705-15.528,18.896-20.188c0.377-0.267,0.752-0.526,1.123-0.771
		c3.108-2.038,6.036-3.232,9.049-3.228c8.919-0.114,19.727,12.249,30.601,22.991C66.923,15.98,59.162,8.478,52.43,6.427
		c-0.451-0.133-0.899-0.247-1.35-0.333c-5.728-1.155-10.922,2.211-16.015,7.565c-0.771,0.818-1.523,1.683-2.261,2.578
		c-3.424,4.189-6.451,9.045-8.016,14.042c-0.603,1.931-0.991,3.894-1.105,5.892c-0.143,2.452,0.132,4.812,0.765,7.096
		c0.835,3.019,2.303,5.905,4.184,8.598c0.531,0.816,1.13,1.597,1.779,2.337c3.329,3.755,7.9,6.407,12.857,6.401
		c1.326,0,2.615-0.189,3.862-0.535c-2.461,0.771-5.006,1.168-7.641,1.096c-0.571-0.016-1.137-0.057-1.7-0.113
		c-4.562-0.457-8.946-2.275-13-4.793c-4.63-2.9-8.811-6.639-11.616-10.502c-0.592-0.82-1.118-1.649-1.575-2.487
		c-1.691-3.104-2.37-6.286-1.7-9.758C10.484,30.429,12.063,27.348,14.2,24.188z"/>
	
		<linearGradient id="SVGID_14_" gradientUnits="userSpaceOnUse" x1="325.2764" y1="56.5415" x2="394.2109" y2="56.5415" gradientTransform="matrix(-1 0 0 1 394.2715 0)">
		<stop  offset="0" style="stop-color:#07888B"/>
		<stop  offset="0.3449" style="stop-color:#219896"/>
		<stop  offset="0.7424" style="stop-color:#32A9A2"/>
		<stop  offset="1" style="stop-color:#38B0A7"/>
	</linearGradient>
	<path fill="url(#SVGID_14_)" d="M14.2,62.349c5.938,4.907,12.161,9.291,18.209,10.302c0.902,0.15,1.786,0.224,2.655,0.226
		c0.925,0.002,1.831-0.084,2.725-0.243c4.32-0.769,8.413-3.429,12.125-7.087c3.323-3.298,6.281-7.353,8.241-11.675
		c1.349-2.984,2.211-6.105,2.383-9.345c0.039-0.416,0.062-0.835,0.062-1.258c0-0.424-0.023-0.842-0.062-1.258
		c-0.578-6.32-5.405-12.106-11.202-14.748c3.138,1.293,6.123,3.18,8.818,5.402c3.699,3.066,6.832,6.73,8.761,10.602
		c1.692,3.402,2.433,6.976,1.917,10.828c-0.115,0.879-0.293,1.751-0.523,2.622c-0.264,0.998-0.6,1.992-0.997,2.985
		c-3.011,7.313-9.245,15.021-14.885,20.407c-4.039,3.73-7.84,6.056-11.874,5.67c-2.115-0.188-4.193-1.075-6.342-2.474
		c-0.368-0.242-0.741-0.501-1.113-0.766c-6.169-4.474-13.773-12.115-20.425-18.977C6.103,56.52,0.479,50.255,0.061,44.331
		C0.7,50.043,7.058,56.211,14.2,62.349z"/>
	
		<linearGradient id="SVGID_15_" gradientUnits="userSpaceOnUse" x1="333.7324" y1="38.4375" x2="394.2715" y2="38.4375" gradientTransform="matrix(-1 0 0 1 394.2715 0)">
		<stop  offset="0" style="stop-color:#6CB741"/>
		<stop  offset="0.3681" style="stop-color:#71AA40"/>
		<stop  offset="0.4403" style="stop-color:#7BB03E"/>
		<stop  offset="0.6042" style="stop-color:#8CBC3B"/>
		<stop  offset="0.7152" style="stop-color:#93C239"/>
		<stop  offset="1" style="stop-color:#93C239"/>
	</linearGradient>
	<path fill="url(#SVGID_15_)" d="M0.061,42.205c0.418-5.924,6.041-12.187,12.613-19.229c6.65-6.861,14.254-14.502,20.422-18.977
		C26.905,8.659,19.321,16.908,14.2,24.188c-2.137,3.16-3.716,6.241-4.303,9.322c-0.669,3.472,0.009,6.653,1.7,9.758
		c0.457,0.838,0.983,1.667,1.575,2.487c2.806,3.863,6.986,7.602,11.616,10.502c4.054,2.52,8.438,4.336,13,4.793
		c0.563,0.057,1.129,0.098,1.7,0.113c2.635,0.072,5.18-0.324,7.641-1.096c0.753-0.208,1.489-0.475,2.208-0.795
		c5.796-2.643,10.624-8.427,11.202-14.746c-0.172,3.239-1.034,6.36-2.383,9.345c-1.96,4.322-4.918,8.376-8.241,11.675
		c-3.713,3.658-7.806,6.318-12.125,7.087c-0.895,0.159-1.8,0.245-2.725,0.243c-0.87-0.002-1.753-0.075-2.655-0.226
		C26.361,71.64,20.138,67.256,14.2,62.349C7.058,56.211,0.7,50.043,0.061,44.331C0.028,43.978,0,43.624,0,43.268
		S0.028,42.559,0.061,42.205z"/>
</g>
<linearGradient id="SVGID_16_" gradientUnits="userSpaceOnUse" x1="262.9189" y1="26.3486" x2="270.96" y2="26.3486">
	<stop  offset="0.0532" style="stop-color:#F0567A"/>
	<stop  offset="0.3777" style="stop-color:#ED3155"/>
	<stop  offset="0.8138" style="stop-color:#ED3155"/>
	<stop  offset="1" style="stop-color:#BA2026"/>
</linearGradient>
<rect x="262.919" y="22.27" fill="url(#SVGID_16_)" width="8.041" height="8.158"/>
<linearGradient id="SVGID_17_" gradientUnits="userSpaceOnUse" x1="346.0195" y1="12.5493" x2="346.0195" y2="58.0932">
	<stop  offset="0" style="stop-color:#A7A9AC"/>
	<stop  offset="1" style="stop-color:#58595B"/>
</linearGradient>
<rect x="341.999" y="22.243" fill="url(#SVGID_17_)" width="8.041" height="8.158"/>
</svg>
